<svg width="65" height="67" viewBox="0 0 65 67" fill="none" xmlns="http://www.w3.org/2000/svg">
<path d="M38.2708 48.346C38.9214 48.6543 39.6543 48.7247 40.3488 48.5457C41.0434 48.3667 41.6581 47.9489 42.0918 47.3612L43.21 45.85C43.7968 45.0427 44.5578 44.3875 45.4326 43.9362C46.3073 43.4849 47.272 43.25 48.25 43.25H57.7C59.3709 43.25 60.9733 43.9348 62.1548 45.1538C63.3363 46.3728 64 48.0261 64 49.75V59.5C64 61.2239 63.3363 62.8772 62.1548 64.0962C60.9733 65.3152 59.3709 66 57.7 66C42.6622 66 28.2404 59.8366 17.607 48.8658C6.97373 37.8949 1 23.0152 1 7.5C1 5.77609 1.66375 4.12279 2.84523 2.90381C4.02671 1.68482 5.62914 1 7.3 1H16.75C18.4209 1 20.0233 1.68482 21.2048 2.90381C22.3863 4.12279 23.05 5.77609 23.05 7.5V17.25C23.05 18.2591 22.8223 19.2543 22.3849 20.1569C21.9475 21.0595 21.3124 21.8445 20.53 22.45L19.0558 23.5908C18.4775 24.0463 18.0699 24.6944 17.9022 25.4249C17.7346 26.1554 17.8172 26.9232 18.136 27.598C22.441 36.6196 29.5214 43.9156 38.2708 48.346Z" stroke="white" stroke-width="2" stroke-linecap="round" stroke-linejoin="round"/>
</svg>
