<svg width="40" height="27" viewBox="0 0 40 27" fill="none" xmlns="http://www.w3.org/2000/svg">
<path d="M37.4029 17.6371C40.0057 16.9624 39.9268 14.3332 37.2706 13.2765L4.8225 0.352356C2.15808 -0.708277 -0.668654 0.774781 0.140317 2.80698L3.56245 11.3945L17.0145 12.3743C17.6137 12.4253 18.1898 12.6392 18.6188 12.97C19.0477 13.3008 19.2952 13.7221 19.3078 14.1431C19.3204 14.564 19.0972 14.951 18.6863 15.2207C18.2753 15.4903 17.7095 15.6211 17.1107 15.5848L3.65872 14.605L0.739424 22.7317C0.0474095 24.6535 2.97724 26.5547 5.58799 25.8794L21.4955 21.7583L37.4029 17.6371Z" fill="white"/>
</svg>
